<svg width="32" height="32" viewBox="0 0 32 32" fill="none" xmlns="http://www.w3.org/2000/svg">
  <circle cx="16" cy="16" r="14" fill="#FF0000"/>
  <path d="M23.498 12.598C23.376 12.163 23.029 11.816 22.594 11.694C21.819 11.5 16 11.5 16 11.5C16 11.5 10.181 11.5 9.406 11.694C8.971 11.816 8.624 12.163 8.502 12.598C8.308 13.373 8.308 15 8.308 15C8.308 15 8.308 16.627 8.502 17.402C8.624 17.837 8.971 18.184 9.406 18.306C10.181 18.5 16 18.5 16 18.5C16 18.5 21.819 18.5 22.594 18.306C23.029 18.184 23.376 17.837 23.498 17.402C23.692 16.627 23.692 15 23.692 15C23.692 15 23.692 13.373 23.498 12.598Z" fill="white"/>
  <path d="M14.5 17V13L18.5 15L14.5 17Z" fill="#FF0000"/>
</svg>